<svg xmlns="http://www.w3.org/2000/svg" viewBox="0 0 500 500">
  <!-- Definitions -->
  <defs>
    <!-- Gradient for the flowing effect -->
    <linearGradient id="flow-gradient" x1="0%" y1="0%" x2="100%" y2="0%">
      <stop offset="0%" style="stop-color:#a8d0e6;stop-opacity:1" />
      <stop offset="100%" style="stop-color:#24a0ed;stop-opacity:1" />
    </linearGradient>
    
    <!-- Frost pattern -->
    <pattern id="frost-pattern" x="0" y="0" width="40" height="40" patternUnits="userSpaceOnUse">
      <path d="M0 20 L40 20 M20 0 L20 40" stroke="#ffffff" stroke-width="0.5" opacity="0.3" />
      <path d="M0 10 L40 10 M0 30 L40 30 M10 0 L10 40 M30 0 L30 40" stroke="#ffffff" stroke-width="0.3" opacity="0.2" />
    </pattern>
  </defs>

  <!-- Main flowing shape -->
  <g transform="translate(25,150) scale(1.15)">
    <path d="M50 100 C100 70, 150 130, 200 100 S300 70, 350 100" 
          stroke="url(#flow-gradient)" 
          fill="none" 
          stroke-width="45"
          stroke-linecap="round" />
    
    <!-- Frost overlay -->
    <path d="M50 100 C100 70, 150 130, 200 100 S300 70, 350 100" 
          stroke="url(#frost-pattern)" 
          fill="none" 
          stroke-width="45"
          stroke-linecap="round" />
  </g>

  <!-- Multiple Snowflake icons -->
  <g transform="translate(75,220) scale(0.5)">
    <path d="M0 0 L30 0 M15 -26 L15 26 M7.5 -13 L22.5 13 M7.5 13 L22.5 -13" 
          stroke="#24a0ed" 
          stroke-width="4" 
          stroke-linecap="round" />
    <circle cx="15" cy="0" r="3" fill="#24a0ed" />
  </g>
  
  <g transform="translate(425,220) scale(0.5)">
    <path d="M0 0 L30 0 M15 -26 L15 26 M7.5 -13 L22.5 13 M7.5 13 L22.5 -13" 
          stroke="#24a0ed" 
          stroke-width="4" 
          stroke-linecap="round" />
    <circle cx="15" cy="0" r="3" fill="#24a0ed" />
  </g>
</svg>
